#!OML:ASF I:\salsa\salsa 7_09\Patient 1\Session 1\dancerfemale.ASF
:FULLY-SPECIFIED
:DEGREES
1259
root -5.16011 16.2408 1.65008 -1439.31 -244.683 -6.02101
lowerback -6.01373 -2.63459 -6.94079
upperback -9.9754 -2.84552 -1.83121
thorax -6.87268 -0.717897 1.89729
lowerneck 4.46837 -3.40444 -5.83745
upperneck 15.4999 -5.45562 12.6939
head 4.34658 -2.12489 4.81517
rclavicle 4.77083e-014 -3.97569e-015
rhumerus 36.346 13.0219 -82.1453
rradius 33.2175
rwrist 7.53455
rhand 0.413667 784.251
rfingers 7.12502
rthumb 25.9865 36.0076
lclavicle 4.77083e-014 -3.97569e-015
lhumerus 24.0521 -18.2093 107.046
lradius 41.7185
lwrist -34.7827
lhand -28.6535 26.911
lfingers 7.12502
lthumb -2.01707 -303.119
rfemur -22.4601 -4.09852 25.0845
rtibia 24.4626
rfoot -18.3099 -12.6277
rtoes 14.2411
lfemur -6.2766 -1.80766 -19.2395
ltibia 51.0158
lfoot 15.5439 -11.6938
ltoes -38.7433
1260
root -4.82433 16.1875 1.64431 -1436.14 -245.869 -3.00388
lowerback -5.82146 -2.86022 -6.40853
upperback -10.3202 -3.15989 -1.32171
thorax -7.32674 -0.867339 2.14728
lowerneck 4.19756 -3.44145 -5.32456
upperneck 15.5024 -5.52158 12.7852
head 4.3882 -2.11845 4.74932
rclavicle 6.24184e-014 2.3059e-014
rhumerus 37.6557 13.11 -81.4094
rradius 33.3678
rwrist 7.76067
rhand 2.64513 784.526
rfingers 7.12502
rthumb 28.1214 36.6145
lclavicle 6.24184e-014 2.3059e-014
lhumerus 24.8906 -18.8252 106.431
lradius 42.3386
lwrist -34.5036
lhand -28.929 28.0342
lfingers 7.12502
lthumb -2.28315 -301.998
rfemur -22.024 -4.40219 27.225
rtibia 24.715
rfoot -18.8311 -10.6219
rtoes 13.021
lfemur -10.8796 -1.09375 -17.4632
ltibia 57.7966
lfoot 20.0172 -11.4879
ltoes -35.7827
1261
root -4.50736 16.1141 1.63506 -1431.91 -247.316 1.0663
lowerback -5.3511 -3.17129 -5.37673
upperback -10.7012 -3.60756 -0.702225
thorax -7.98897 -1.11404 2.25717
lowerneck 4.25801 -3.08572 -5.3822
upperneck 14.8347 -5.13601 14.0471
head 4.15816 -1.90532 5.16991
rclavicle 1.53064e-014 1.19271e-014
rhumerus 39.3495 14.101 -80.0928
rradius 33.7851
rwrist 7.31672
rhand 1.61647 785.081
rfingers 7.12502
rthumb 27.1377 37.0122
lclavicle 1.53064e-014 1.19271e-014
lhumerus 26.0247 -18.6597 105.686
lradius 42.8304
lwrist -34.7763
lhand -30.1667 25.7374
lfingers 7.12502
lthumb -3.47846 -304.311
rfemur -21.5868 -4.19401 29.6009
rtibia 24.9482
rfoot -19.38 -8.84707
rtoes 11.0265
lfemur -15.7129 -0.218229 -15.5749
ltibia 64.3524
lfoot 21.5457 -7.48988
ltoes -35.4131
1262
root -4.20887 16.0196 1.61924 -1425.39 -248.92 7.67583
lowerback -4.54072 -3.42662 -3.46961
upperback -11.0347 -3.9746 0.0550767
thorax -8.85702 -1.39269 2.06016
lowerneck 4.07766 -2.73336 -5.1705
upperneck 14.5149 -4.74618 15.15
head 4.06132 -1.65945 5.49436
rclavicle 1.35174e-014 2.8625e-014
rhumerus 41.1754 15.0436 -78.8092
rradius 34.4898
rwrist 6.65496
rhand 0.830302 785.617
rfingers 7.12502
rthumb 26.3854 37.4334
lclavicle 1.35174e-014 2.8625e-014
lhumerus 27.2628 -18.9362 104.504
lradius 43.8841
lwrist -34.5249
lhand -30.8542 26.2124
lfingers 7.12502
lthumb -4.14239 -303.848
rfemur -20.868 -3.69495 32.5795
rtibia 25.1557
rfoot -19.926 -6.92529
rtoes 10.5573
lfemur -20.4352 1.05836 -13.0561
ltibia 70.4207
lfoot 19.6914 -6.47561
ltoes -30.0956
1263
root -3.91478 15.9235 1.60179 -1417.61 -250.788 15.503
lowerback -3.78332 -3.5775 -1.72502
upperback -11.2394 -4.15508 0.765366
thorax -9.58502 -1.58507 1.90821
lowerneck 3.90037 -2.40309 -4.92877
upperneck 14.1837 -4.3976 16.5343
head 3.9651 -1.41693 5.90548
rclavicle -1.41137e-014 3.18055e-015
rhumerus 43.0454 15.2527 -78.0531
rradius 35.3384
rwrist 6.59968
rhand -0.0325238 786.757
rfingers 7.12502
rthumb 25.5592 38.4515
lclavicle -1.41137e-014 3.18055e-015
lhumerus 28.5831 -19.2589 103.434
lradius 45.104
lwrist -34.8381
lhand -31.7963 26.0399
lfingers 7.12502
lthumb -5.05204 -304.04
rfemur -19.8414 -3.01149 35.3369
rtibia 25.1862
rfoot -20.0519 -4.51195
rtoes 10.245
lfemur -25.0255 1.96318 -10.9456
ltibia 75.5964
lfoot 17.0487 -6.1882
ltoes -27.4302
1264
root -3.61111 15.854 1.58586 -1409.59 -253.086 23.2944
lowerback -3.41644 -3.6782 -1.02141
upperback -11.3283 -4.26211 1.32682
thorax -9.90703 -1.67125 2.1494
lowerneck 3.92077 -2.01675 -4.63527
upperneck 13.628 -3.94294 18.109
head 3.75264 -1.13202 6.37273
rclavicle -1.05356e-014 2.22639e-014
rhumerus 45.0779 15.2399 -77.0113
rradius 36.6035
rwrist 6.31727
rhand -0.660327 787.485
rfingers 7.12502
rthumb 24.9577 39.0952
lclavicle -1.05356e-014 2.22639e-014
lhumerus 30.131 -19.7164 102.347
lradius 46.645
lwrist -35.3994
lhand -32.1822 26.3916
lfingers 7.12502
lthumb -5.42461 -303.698
rfemur -18.9096 -4.60298 37.3743
rtibia 25.1766
rfoot -20.1573 0.621926
rtoes 10.8647
lfemur -29.4521 2.00365 -10.0035
ltibia 79.5647
lfoot 14.3002 -5.73291
ltoes -28.9241
1265
root -3.30558 15.8117 1.56292 -1400.07 -255.55 32.3631
lowerback -3.27825 -3.7557 -0.882113
upperback -11.4542 -4.34654 1.7487
thorax -10.1074 -1.70249 2.54156
lowerneck 4.21493 -1.62625 -4.22262
upperneck 13.1455 -3.44377 19.5493
head 3.50147 -0.837198 6.78047
rclavicle 3.97569e-015 2.54444e-014
rhumerus 47.0751 15.0653 -75.5463
rradius 38.2647
rwrist 5.30644
rhand 0.255109 787.15
rfingers 7.12502
rthumb 25.8347 38.885
lclavicle 3.97569e-015 2.54444e-014
lhumerus 31.697 -20.72 100.998
lradius 48.9036
lwrist -35.023
lhand -32.9748 25.3987
lfingers 7.12502
lthumb -6.18986 -304.712
rfemur -18.0267 -6.64283 38.6578
rtibia 25.0928
rfoot -19.4152 6.63349
rtoes 10.8921
lfemur -33.6051 0.937801 -9.64519
ltibia 82.2791
lfoot 11.3276 -4.11455
ltoes -31.3328
1266
root -3.00799 15.7669 1.52506 -1386.33 -257.782 45.605
lowerback -3.33914 -3.80902 -0.590897
upperback -11.4737 -4.40513 2.10001
thorax -10.0865 -1.74771 2.75647
lowerneck 4.54817 -1.17302 -3.71145
upperneck 12.7792 -2.83104 20.6694
head 3.25607 -0.501123 7.06695
rclavicle 8.74653e-015 -1.51076e-014
rhumerus 49.2403 14.5936 -74.1907
rradius 40.0021
rwrist 3.90933
rhand -0.781814 788.366
rfingers 7.12502
rthumb 24.8413 39.9602
lclavicle 8.74653e-015 -1.51076e-014
lhumerus 33.6393 -21.771 99.4374
lradius 51.1676
lwrist -34.7884
lhand -33.6581 25.0307
lfingers 7.12502
lthumb -6.84951 -305.1
rfemur -17.0873 -8.4876 39.5884
rtibia 24.9184
rfoot -18.8493 12.7953
rtoes 9.90894
lfemur -37.2773 -1.37844 -8.9795
ltibia 84.0672
lfoot 7.69875 -1.16063
ltoes -27.9905
1267
root -2.70826 15.736 1.47538 -1366.27 -259.28 65.315
lowerback -3.15839 -3.8394 -0.250405
upperback -11.4394 -4.43508 2.53833
thorax -10.1464 -1.78081 3.05116
lowerneck 4.76634 -0.583223 -3.35256
upperneck 12.574 -2.04389 21.5342
head 3.05123 -0.0930588 7.29636
rclavicle -1.25234e-014 -3.18055e-015
rhumerus 51.4735 13.9578 -73.0444
rradius 41.9027
rwrist 2.44583
rhand -1.22513 789.07
rfingers 7.12502
rthumb 24.4164 40.6062
lclavicle -1.25234e-014 -3.18055e-015
lhumerus 36.0322 -22.7045 97.7098
lradius 53.2526
lwrist -35.038
lhand -34.2004 26.1893
lfingers 7.12502
lthumb -7.37303 -303.959
rfemur -15.8609 -9.21831 40.1303
rtibia 24.7754
rfoot -18.7988 17.9681
rtoes 11.6186
lfemur -40.5578 -3.79157 -8.08272
ltibia 84.692
lfoot 4.07326 1.80605
ltoes -27.5954
1268
root -2.40392 15.7152 1.41093 -1340.86 -259.365 90.4661
lowerback -2.91792 -3.80839 0.0249726
upperback -11.2976 -4.39131 3.00409
thorax -10.116 -1.77687 3.40669
lowerneck 4.79025 0.116853 -3.28784
upperneck 12.5265 -1.15194 22.4435
head 2.90608 0.368321 7.5942
rclavicle 6.34123e-014 2.78299e-014
rhumerus 53.7253 13.1768 -71.8339
rradius 44.0638
rwrist 1.09054
rhand -1.82844 790.383
rfingers 7.12502
rthumb 23.8379 41.8424
lclavicle 6.34123e-014 2.78299e-014
lhumerus 38.8196 -23.4642 95.8383
lradius 55.2715
lwrist -35.2449
lhand -36.4189 26.2026
lfingers 7.12502
lthumb -9.51399 -304.032
rfemur -14.2967 -7.02621 40.123
rtibia 24.6942
rfoot -18.7446 20.6587
rtoes 11.3411
lfemur -43.1862 -5.75954 -6.83444
ltibia 84.4614
lfoot 0.0163361 4.6223
ltoes -24.604
1269
root -2.09663 15.6769 1.3314 -1316.96 -257.384 114.109
lowerback -2.63222 -3.71996 0.479191
upperback -11.174 -4.26222 3.43057
thorax -10.1571 -1.7467 3.62211
lowerneck 4.74763 0.76785 -3.02997
upperneck 12.8429 -0.356445 22.744
head 2.89437 0.791348 7.65798
rclavicle -2.8625e-014 2.62396e-014
rhumerus 55.764 12.2731 -70.7626
rradius 46.6148
rwrist -0.0735161
rhand -2.80562 791.375
rfingers 7.12502
rthumb 22.9005 42.7152
lclavicle -2.8625e-014 2.62396e-014
lhumerus 41.7452 -24.1066 93.7883
lradius 57.2838
lwrist -34.8685
lhand -36.7749 27.4986
lfingers 7.12502
lthumb -9.85747 -302.752
rfemur -12.7178 -4.43616 39.925
rtibia 24.5553
rfoot -18.0716 23.1837
rtoes 11.0759
lfemur -45.5264 -6.98204 -5.08379
ltibia 83.4905
lfoot -3.48788 6.6429
ltoes -22.8657
1270
root -1.78027 15.6548 1.24705 -1299.66 -253.763 131.045
lowerback -2.31635 -3.60011 0.905503
upperback -11.1417 -4.08638 3.77639
thorax -10.328 -1.69006 3.77209
lowerneck 4.88458 1.44055 -2.8053
upperneck 13.1356 0.480249 22.9042
head 2.84017 1.21246 7.67521
rclavicle 3.91606e-014 -2.8625e-014
rhumerus 57.4375 11.1545 -70.1404
rradius 49.643
rwrist -1.19795
rhand -3.54618 792.257
rfingers 7.12502
rthumb 22.1897 43.5105
lclavicle 3.91606e-014 -2.8625e-014
lhumerus 44.7917 -24.9537 91.0425
lradius 59.9941
lwrist -34.879
lhand -38.0754 27.8121
lfingers 7.12502
lthumb -11.112 -302.502
rfemur -11.268 -1.40056 39.4191
rtibia 24.4122
rfoot -16.8413 25.2887
rtoes 10.9483
lfemur -47.3447 -8.70532 -2.76918
ltibia 81.5183
lfoot -6.02863 6.76281
ltoes -24.9212
1271
root -1.45174 15.6784 1.15861 -1287.17 -249.239 142.991
lowerback -2.0659 -3.46015 0.953068
upperback -11.1963 -3.90459 3.98088
thorax -10.5415 -1.60249 3.9799
lowerneck 4.8107 2.14223 -2.80539
upperneck 13.7011 1.2883 23.0661
head 2.90357 1.63817 7.74257
rclavicle -6.54002e-014 4.77083e-015
rhumerus 58.7144 9.93729 -69.7277
rradius 53.2281
rwrist -2.42854
rhand -4.22268 791.414
rfingers 7.12502
rthumb 21.5401 42.5915
lclavicle -6.54002e-014 4.77083e-015
lhumerus 47.9559 -25.599 89.063
lradius 61.7027
lwrist -35.1394
lhand -39.453 27.2073
lfingers 7.12502
lthumb -12.4404 -303.183
rfemur -10.1608 1.76576 38.201
rtibia 24.2615
rfoot -14.9716 27.2792
rtoes 10.7204
lfemur -48.5426 -10.7437 -0.219198
ltibia 78.4617
lfoot -8.20939 4.23969
ltoes -24.7814
1272
root -1.11004 15.7314 1.05986 -1278.19 -243.907 151.328
lowerback -1.8045 -3.29322 0.894489
upperback -11.3573 -3.69123 4.09968
thorax -10.8865 -1.48987 4.16001
lowerneck 4.52502 2.61031 -2.82747
upperneck 14.0242 1.7922 23.1937
head 2.97482 1.90131 7.79928
rclavicle -1.09332e-014 4.17448e-014
rhumerus 59.5829 8.54262 -69.8751
rradius 56.9879
rwrist -4.03578
rhand -4.94226 792.259
rfingers 7.12502
rthumb 20.8489 43.3597
lclavicle -1.09332e-014 4.17448e-014
lhumerus 51.0926 -26.3623 86.5389
lradius 63.6848
lwrist -34.7782
lhand -40.6948 26.6986
lfingers 7.12502
lthumb -13.6374 -303.768
rfemur -9.44121 4.43626 36.4521
rtibia 24.0149
rfoot -12.2274 29.3796
rtoes 10.238
lfemur -48.9787 -13.0133 2.74923
ltibia 74.4474
lfoot -9.35464 -0.389842
ltoes -26.7813
1273
root -0.753482 15.8138 0.958362 -1272.03 -237.868 156.886
lowerback -1.48692 -3.13557 0.865576
upperback -11.5577 -3.48174 4.26777
thorax -11.3146 -1.37612 4.38387
lowerneck 4.775 3.22171 -2.5978
upperneck 14.2768 2.56409 22.9164
head 2.9122 2.25541 7.65777
rclavicle 2.96189e-014 7.55382e-014
rhumerus 60.1137 7.2209 -70.2909
rradius 60.6103
rwrist -5.97166
rhand -5.35659 791.888
rfingers 7.12502
rthumb 20.4508 42.945
lclavicle 2.96189e-014 7.55382e-014
lhumerus 54.1718 -27.0209 83.3726
lradius 66.0785
lwrist -34.0439
lhand -41.2358 26.7259
lfingers 7.12502
lthumb -14.1589 -303.777
rfemur -8.89335 6.16503 34.504
rtibia 23.5895
rfoot -8.08302 31.9082
rtoes 11.0383
lfemur -48.9026 -15.6338 6.34525
ltibia 69.8433
lfoot -10.618 -6.66329
ltoes -28.0353
